P3
17 13
255
204 204 204 204 204 204 204 204 204 204 204 204 204 204 204 204 204 204 204 204 204 204 204 204 204 204 204 204 204 204 204 204 204 204 204 204 204 204 204 204 204 204 204 204 204 204 204 204 204 204 204
204 204 204 255 255 255 255 255 255 255 255 255 255 255 255 0 0 0 0 0 0 0 0 0 0 0 0 0 0 0 0 0 0 0 0 0 255 255 255 255 255 255 255 255 255 255 255 255 204 204 204
204 204 204 255 255 255 255 255 255 0 0 0 0 0 0 204 153 0 204 153 0 255 255 255 255 255 255 255 255 255 255 255 255 204 153 0 0 0 0 0 0 0 255 255 255 255 255 255 204 204 204
204 204 204 255 255 255 0 0 0 204 153 0 204 153 0 0 0 0 255 255 255 255 255 255 255 255 255 255 255 255 204 153 0 204 153 0 204 153 0 204 153 0 0 0 0 255 255 255 204 204 204
204 204 204 0 0 0 204 153 0 204 153 0 0 0 0 255 255 255 255 255 255 255 255 255 255 255 255 204 153 0 204 153 0 204 153 0 0 0 0 204 153 0 204 153 0 0 0 0 204 204 204
204 204 204 0 0 0 204 153 0 204 153 0 0 0 0 255 255 255 0 0 0 255 255 255 255 255 255 204 153 0 0 0 0 204 153 0 0 0 0 204 153 0 204 153 0 0 0 0 204 204 204
204 204 204 255 255 255 0 0 0 204 153 0 0 0 0 255 255 255 255 255 255 255 255 255 255 255 255 204 153 0 204 153 0 204 153 0 0 0 0 204 153 0 0 0 0 255 255 255 204 204 204
204 204 204 255 255 255 0 0 0 204 153 0 0 0 0 255 255 255 255 255 255 255 255 255 255 255 255 255 255 255 204 153 0 204 153 0 0 0 0 204 153 0 0 0 0 255 255 255 204 204 204
204 204 204 255 255 255 255 255 255 0 0 0 255 255 255 0 0 0 255 255 255 0 0 0 0 0 0 0 0 0 255 255 255 0 0 0 255 255 255 0 0 0 255 255 255 255 255 255 204 204 204
204 204 204 255 255 255 255 255 255 255 255 255 255 255 255 0 0 0 255 255 255 255 255 255 0 0 0 255 255 255 255 255 255 0 0 0 255 255 255 255 255 255 255 255 255 255 255 255 204 204 204
204 204 204 255 255 255 255 255 255 255 255 255 255 255 255 255 255 255 0 0 0 255 255 255 255 255 255 255 255 255 0 0 0 255 255 255 255 255 255 255 255 255 255 255 255 255 255 255 204 204 204
204 204 204 255 255 255 255 255 255 255 255 255 255 255 255 255 255 255 255 255 255 0 0 0 0 0 0 0 0 0 255 255 255 255 255 255 255 255 255 255 255 255 255 255 255 255 255 255 204 204 204
204 204 204 204 204 204 204 204 204 204 204 204 204 204 204 204 204 204 204 204 204 204 204 204 204 204 204 204 204 204 204 204 204 204 204 204 204 204 204 204 204 204 204 204 204 204 204 204 204 204 204
